<svg version="1.1" xmlns="http://www.w3.org/2000/svg" viewBox="-3275.1831943429625 -1465.472087097168 12959.152023688666 2542.848165893555"><desc>Created with Snap</desc><defs></defs><g><g transform="matrix(27.7475,0,0,27.7475,-3009.6044,-1580.0334)"><path d="M7.2,84.7h85.5c3.2,0,5.8-2.6,5.8-5.8v-2.5c0-0.5-0.2-1-0.5-1.4l-4.3-5.3c-0.7-0.9-1.1-1.9-1.1-3v-5v-3.2v-9.2l0,0V23.7  c0-4.7-3.8-8.5-8.5-8.5H52.4H15.9c-4.7,0-8.5,3.8-8.5,8.5v34.8v1.9v6.2c0,1.1-0.4,2.2-1.1,3L2,75.1c-0.3,0.4-0.5,0.9-0.5,1.4V79  C1.5,82.2,4.1,84.7,7.2,84.7z M59.2,76.4c0,1.6-1.3,2.9-2.9,2.9H43.8c-1.6,0-2.9-1.3-2.9-2.9v-0.6h18.4V76.4z M15.9,60.8v-2.2V23.7  c0,0,0,0,0,0h40.3h27.9c0,0,0,0,0,0v34.9v2.2v0.6h0v0.4v5.5H15.9V60.8z M54.9,32.9l3.9,2.2l-13.7,24l-3.9-2.2L54.9,32.9z M38.5,38  l-8,8l8,8l-3.2,3.2l-8-8L24.2,46l3.2-3.2l8-8L38.5,38z M72.6,42.8l3.2,3.2l-3.2,3.2l-8,8L61.5,54l8-8l-8-8l3.2-3.2L72.6,42.8z" fill="#bb3344" style=""></path><desc>Created with Snap</desc><defs></defs></g><g><g transform="matrix(1.024,0,0,-1.024,0,0)"><path d="M53 47L112 47L112 561L53 561Q43 561 36 567Q30 574 30 584Q30 594 36 601Q43 608 53 608L225 608Q235 608 241 601Q248 594 248 584Q248 574 241 567Q235 561 225 561L166 561L166 47L225 47Q235 47 241 40Q248 34 248 24Q248 14 241 7Q235 0 225 0L53 0Q43 0 36 7Q30 14 30 24Q30 34 36 40Q43 47 53 47ZM354 327L307 327Q297 327 290 333Q284 340 284 350Q284 360 290 367Q297 374 307 374L361 374Q423 374 423 306Q483 384 574 384Q628 384 662 356Q697 329 697 276L697 66Q697 47 724 47L763 47Q773 47 779 40Q786 33 786 23Q786 13 779 6Q773 0 763 0L724 0Q643 0 643 65L643 276Q643 306 624 322Q606 338 573 338Q481 338 427 242L427 13Q427 3 419 -4Q411 -10 400 -10Q389 -10 381 -4Q373 3 373 13L373 308Q373 327 354 327ZM1002 66L1142 370Q1149 385 1158 385Q1182 385 1191 367Q1193 362 1193 357Q1193 353 1191 349L1027 6Q1019 -10 1001 -10Q984 -10 976 6L811 349Q809 353 809 358Q809 373 827 381Q835 385 844 385Q854 385 861 370L1002 66ZM1561 220Q1558 274 1529 306Q1501 338 1447 338Q1394 338 1358 305Q1322 273 1313 220L1561 220ZM1563 96Q1570 108 1579 108Q1588 108 1597 103Q1606 99 1609 89Q1613 80 1608 72Q1557 -10 1446 -10Q1358 -10 1307 46Q1257 103 1257 189Q1257 275 1309 329Q1361 384 1446 384Q1531 384 1572 333Q1614 282 1614 197Q1614 174 1588 174L1311 173Q1315 111 1351 73Q1388 36 1446 36Q1524 36 1563 96ZM1731 327L1684 327Q1674 327 1667 333Q1661 340 1661 350Q1661 360 1667 367Q1674 374 1684 374L1738 374Q1800 374 1800 306Q1860 384 1951 384Q2005 384 2039 356Q2074 329 2074 276L2074 66Q2074 47 2101 47L2140 47Q2150 47 2156 40Q2163 33 2163 23Q2163 13 2156 6Q2150 0 2140 0L2101 0Q2020 0 2020 65L2020 276Q2020 306 2001 322Q1983 338 1950 338Q1858 338 1804 242L1804 13Q1804 3 1796 -4Q1788 -10 1777 -10Q1766 -10 1758 -4Q1750 3 1750 13L1750 308Q1750 327 1731 327ZM2495 64Q2503 69 2513 67Q2524 65 2528 58Q2532 52 2532 47Q2532 32 2521 25Q2461 -10 2392 -10Q2323 -10 2293 18Q2263 47 2263 113L2263 327L2207 327Q2197 327 2190 333Q2184 340 2184 350Q2184 360 2190 367Q2197 374 2207 374L2263 374L2263 517Q2263 527 2271 533Q2279 540 2290 540Q2301 540 2309 533Q2317 527 2317 517L2317 374L2485 374Q2495 374 2501 367Q2508 360 2508 350Q2508 340 2501 333Q2495 327 2485 327L2317 327L2317 113Q2317 71 2334 53Q2352 36 2399 36Q2447 36 2495 64ZM2776 36Q2837 36 2875 78Q2914 120 2914 186Q2914 253 2875 295Q2837 338 2776 338Q2715 338 2676 295Q2638 253 2638 186Q2638 120 2676 78Q2715 36 2776 36ZM2637 45Q2584 101 2584 187Q2584 273 2638 328Q2692 384 2776 384Q2860 384 2913 328Q2967 273 2967 186Q2967 100 2913 45Q2860 -10 2775 -10Q2691 -10 2637 45ZM3037 374L3088 374Q3151 374 3153 306Q3207 384 3281 384Q3323 384 3352 368Q3366 360 3366 347L3366 263Q3366 253 3358 246Q3350 240 3339 240Q3328 240 3320 246Q3312 253 3312 263L3312 333Q3299 338 3273 338Q3247 338 3214 313Q3181 289 3157 241L3157 13Q3157 3 3149 -4Q3141 -10 3130 -10Q3119 -10 3111 -4Q3103 3 3103 13L3103 308Q3103 327 3083 327L3037 327Q3027 327 3020 333Q3014 340 3014 350Q3014 360 3020 367Q3027 374 3037 374ZM3373 -180L3405 -183Q3454 -183 3485 -142Q3509 -111 3538 -51L3572 19L3409 349Q3405 358 3409 367Q3414 376 3423 380Q3433 385 3442 385Q3452 385 3459 370L3600 74L3741 370Q3748 385 3757 385Q3781 385 3790 367Q3792 362 3792 357Q3792 353 3790 349L3586 -71Q3567 -111 3555 -131Q3544 -150 3522 -178Q3479 -229 3404 -229Q3383 -229 3372 -226Q3350 -221 3353 -201Q3356 -180 3373 -180ZM4138 13L4138 561L4078 561Q4068 561 4061 567Q4055 574 4055 584Q4055 594 4061 601Q4068 608 4078 608L4161 608Q4177 608 4187 596L4438 253L4688 595Q4697 608 4713 608L4798 608Q4808 608 4814 601Q4821 594 4821 584Q4821 574 4814 567Q4808 561 4798 561L4738 561L4738 62Q4738 47 4761 47L4798 47Q4808 47 4814 40Q4821 33 4821 23Q4821 13 4814 6Q4808 0 4798 0L4761 0Q4684 0 4684 62L4684 503L4460 197Q4452 186 4438 186Q4424 186 4416 197L4192 503L4192 13Q4192 3 4184 -4Q4176 -10 4165 -10Q4154 -10 4146 -4Q4138 3 4138 13ZM5164 136L5164 155Q5098 173 5051 173Q5005 173 4975 155Q4946 137 4946 104Q4946 72 4965 54Q4984 36 5017 36Q5109 36 5164 136ZM5244 47L5283 47Q5293 47 5299 40Q5306 33 5306 23Q5306 13 5299 6Q5293 0 5283 0L5239 0Q5203 0 5183 16Q5164 32 5164 61Q5164 66 5165 72Q5112 -10 5011 -10Q4955 -10 4923 20Q4892 50 4892 103Q4892 157 4934 187Q4977 218 5040 218Q5104 218 5164 197L5164 266Q5164 314 5129 328Q5102 338 5054 338Q5007 338 4967 322L4967 259Q4967 249 4959 242Q4951 236 4940 236Q4929 236 4921 242Q4913 249 4913 259L4913 335Q4913 348 4926 355Q4975 384 5056 384Q5137 384 5177 357Q5217 331 5217 266L5217 66Q5217 47 5244 47ZM5376 327L5329 327Q5319 327 5312 333Q5306 340 5306 350Q5306 360 5312 367Q5319 374 5329 374L5383 374Q5445 374 5445 306Q5505 384 5596 384Q5650 384 5684 356Q5719 329 5719 276L5719 66Q5719 47 5746 47L5785 47Q5795 47 5801 40Q5808 33 5808 23Q5808 13 5801 6Q5795 0 5785 0L5746 0Q5665 0 5665 65L5665 276Q5665 306 5646 322Q5628 338 5595 338Q5503 338 5449 242L5449 13Q5449 3 5441 -4Q5433 -10 5422 -10Q5411 -10 5403 -4Q5395 3 5395 13L5395 308Q5395 327 5376 327ZM6123 136L6123 155Q6057 173 6010 173Q5964 173 5934 155Q5905 137 5905 104Q5905 72 5924 54Q5943 36 5976 36Q6068 36 6123 136ZM6203 47L6242 47Q6252 47 6258 40Q6265 33 6265 23Q6265 13 6258 6Q6252 0 6242 0L6198 0Q6162 0 6142 16Q6123 32 6123 61Q6123 66 6124 72Q6071 -10 5970 -10Q5914 -10 5882 20Q5851 50 5851 103Q5851 157 5893 187Q5936 218 5999 218Q6063 218 6123 197L6123 266Q6123 314 6088 328Q6061 338 6013 338Q5966 338 5926 322L5926 259Q5926 249 5918 242Q5910 236 5899 236Q5888 236 5880 242Q5872 249 5872 259L5872 335Q5872 348 5885 355Q5934 384 6015 384Q6096 384 6136 357Q6176 331 6176 266L6176 66Q6176 47 6203 47ZM6365 -11Q6327 -33 6327 -77Q6327 -120 6363 -145Q6400 -170 6464 -170Q6528 -170 6579 -148Q6630 -126 6630 -88Q6630 -47 6558 -39Q6533 -37 6399 -19Q6377 -15 6365 -11ZM6578 241Q6578 285 6548 312Q6519 340 6472 340Q6426 340 6396 312Q6367 285 6367 241Q6367 197 6396 169Q6426 142 6472 142Q6519 142 6548 169Q6578 197 6578 241ZM6608 514Q6624 514 6630 497Q6644 462 6644 434Q6644 376 6596 336Q6632 299 6632 237Q6632 175 6585 135Q6539 96 6472 96Q6442 96 6415 104Q6392 97 6374 82Q6357 68 6357 54Q6357 35 6407 26Q6429 23 6566 7Q6684 -8 6684 -88Q6684 -150 6613 -183Q6543 -216 6463 -216Q6384 -216 6328 -182Q6273 -147 6273 -85Q6273 -23 6326 9Q6304 22 6304 54Q6304 98 6373 125Q6314 170 6314 237Q6314 305 6358 345Q6402 386 6464 386Q6527 386 6563 363Q6590 390 6590 432Q6590 453 6583 471Q6571 501 6595 511Q6602 514 6608 514ZM7020 220Q7017 274 6988 306Q6960 338 6906 338Q6853 338 6817 305Q6781 273 6772 220L7020 220ZM7022 96Q7029 108 7038 108Q7047 108 7056 103Q7065 99 7068 89Q7072 80 7067 72Q7016 -10 6905 -10Q6817 -10 6766 46Q6716 103 6716 189Q6716 275 6768 329Q6820 384 6905 384Q6990 384 7031 333Q7073 282 7073 197Q7073 174 7047 174L6770 173Q6774 111 6810 73Q6847 36 6905 36Q6983 36 7022 96ZM7750 276L7750 66Q7750 47 7777 47L7816 47Q7826 47 7832 40Q7839 33 7839 23Q7839 13 7832 6Q7826 0 7816 0L7777 0Q7696 0 7696 65L7696 276Q7696 338 7638 338Q7560 338 7509 251L7509 13Q7509 3 7501 -4Q7493 -10 7482 -10Q7471 -10 7463 -4Q7455 3 7455 13L7455 276Q7455 338 7397 338Q7352 338 7321 315Q7291 292 7263 243L7263 13Q7263 3 7255 -4Q7247 -10 7236 -10Q7225 -10 7217 -4Q7209 3 7209 13L7209 308Q7209 327 7190 327L7143 327Q7133 327 7126 333Q7120 340 7120 350Q7120 360 7126 367Q7133 374 7143 374L7197 374Q7259 374 7259 306Q7290 346 7321 365Q7353 384 7398 384Q7484 384 7504 312Q7534 348 7565 366Q7596 384 7643 384Q7690 384 7720 356Q7750 329 7750 276ZM8186 220Q8183 274 8154 306Q8126 338 8072 338Q8019 338 7983 305Q7947 273 7938 220L8186 220ZM8188 96Q8195 108 8204 108Q8213 108 8222 103Q8231 99 8234 89Q8238 80 8233 72Q8182 -10 8071 -10Q7983 -10 7932 46Q7882 103 7882 189Q7882 275 7934 329Q7986 384 8071 384Q8156 384 8197 333Q8239 282 8239 197Q8239 174 8213 174L7936 173Q7940 111 7976 73Q8013 36 8071 36Q8149 36 8188 96ZM8356 327L8309 327Q8299 327 8292 333Q8286 340 8286 350Q8286 360 8292 367Q8299 374 8309 374L8363 374Q8425 374 8425 306Q8485 384 8576 384Q8630 384 8664 356Q8699 329 8699 276L8699 66Q8699 47 8726 47L8765 47Q8775 47 8781 40Q8788 33 8788 23Q8788 13 8781 6Q8775 0 8765 0L8726 0Q8645 0 8645 65L8645 276Q8645 306 8626 322Q8608 338 8575 338Q8483 338 8429 242L8429 13Q8429 3 8421 -4Q8413 -10 8402 -10Q8391 -10 8383 -4Q8375 3 8375 13L8375 308Q8375 327 8356 327ZM9120 64Q9128 69 9138 67Q9149 65 9153 58Q9157 52 9157 47Q9157 32 9146 25Q9086 -10 9017 -10Q8948 -10 8918 18Q8888 47 8888 113L8888 327L8832 327Q8822 327 8815 333Q8809 340 8809 350Q8809 360 8815 367Q8822 374 8832 374L8888 374L8888 517Q8888 527 8896 533Q8904 540 8915 540Q8926 540 8934 533Q8942 527 8942 517L8942 374L9110 374Q9120 374 9126 367Q9133 360 9133 350Q9133 340 9126 333Q9120 327 9110 327L8942 327L8942 113Q8942 71 8959 53Q8977 36 9024 36Q9072 36 9120 64Z" fill="#8a0059" style=""></path></g></g></g></svg>